<svg width="300" height="237" viewBox="0 0 300 237" fill="none" xmlns="http://www.w3.org/2000/svg">
<path d="M299.979 185.789C300.279 199.72 297.366 212.592 287.878 223.288C270.587 242.787 244.874 240.499 231.392 218.167C225.91 209.086 219.025 201.167 211.645 193.739C201.704 183.73 189.093 179.087 175.21 178.813C157.364 178.459 139.503 178.039 121.653 179.169C105.589 180.191 93.0261 187.874 82.695 199.607C77.2838 205.754 72.2026 212.242 67.8901 219.238C52.219 244.643 21.6605 239.927 8.01813 218.111C-0.441797 204.585 -0.891793 189.738 0.769442 174.778C4.15941 144.218 14.3406 115.549 28.2904 88.4607C43.1103 59.6784 67.8938 45.8 100.147 45.0862C105.502 44.966 108.967 47.0135 111.6 51.7849C119.865 66.7678 132.873 75.2285 149.823 75.3751C166.87 75.5216 179.819 66.8843 188.257 52.0817C191.032 47.2127 194.429 44.9134 200.024 45.0787C232.405 46.0518 257.26 59.9752 272.087 89.0505C285.561 115.473 295.123 143.429 299.139 173.031C299.709 177.242 299.713 181.536 299.976 185.789H299.979ZM286.307 186.901C286.307 185.425 286.416 183.941 286.292 182.472C283.599 150.522 273.212 120.775 258.388 92.8C247.487 72.2267 229.12 61.0497 205.589 59.1223C202.109 58.8368 199.923 60.0503 197.883 63.0108C173.917 97.7893 126.682 97.9508 102.619 63.3302C100.346 60.0616 97.8373 58.7729 94.0236 59.1336C70.8038 61.3164 53.224 72.5724 41.5353 92.6197C37.4254 99.6678 34.4141 107.4 31.3354 114.996C22.5492 136.667 15.3081 158.795 13.7931 182.352C13.0881 193.337 14.3218 203.936 21.503 213.125C31.6392 226.091 47.2465 225.704 56.2652 211.957C60.4089 205.637 64.8114 199.514 69.5776 193.664C84.7424 175.04 103.83 164.675 128.34 165.175C144.232 165.498 160.136 165.145 176.032 165.272C190.233 165.389 203.14 169.8 214.533 178.219C226.859 187.33 235.791 199.525 244.019 212.231C251.582 223.915 264.062 226.045 274.615 217.029C283.862 209.128 286.247 198.42 286.318 186.901H286.307Z" fill="#FBE330"/>
<path d="M156.982 21.9732C156.982 24.1072 157.124 26.2524 156.956 28.3751C156.468 34.514 156.547 39.5785 164.332 41.9153C170.035 43.6247 172.855 52.3184 171.284 58.277C170.388 61.6771 168.194 63.8261 164.65 63.7547C161.197 63.6871 158.879 61.6959 157.968 58.2545C157.499 56.4774 158.242 53.7724 155.486 53.5507C151.451 53.2238 147.273 52.5063 143.381 54.0992C141.892 54.7079 142.342 56.7254 142.274 58.1605C142.076 62.3383 139.646 64.6451 135.779 64.8066C131.587 64.9795 129.195 62.3759 128.527 58.2432C127.177 49.8764 131.276 42.7569 139.368 40.2209C142.409 39.2666 143.066 37.5008 143.051 34.777C143.006 26.8949 143.032 19.0127 143.051 11.1343C143.051 9.65779 142.998 8.15875 143.227 6.71231C143.808 2.96283 145.529 0.096249 149.763 0.00232427C154.199 -0.0916005 156.476 2.66979 156.749 6.71231C157.091 11.7767 156.832 16.8825 156.832 21.9694C156.881 21.9694 156.933 21.9694 156.982 21.9694V21.9732Z" fill="#FBE330"/>
<path d="M84.4987 161.497C62.1826 161.358 43.4853 142.287 43.7778 119.959C44.0666 97.7329 62.6551 79.6731 85.1849 79.7294C107.898 79.7858 126.086 98.2777 126.198 121.428C126.303 142.941 106.841 161.639 84.4987 161.497ZM57.6752 120.459C57.7202 135.412 69.9638 147.532 85.0312 147.536C99.9636 147.539 112.335 135.265 112.41 120.373C112.481 105.728 99.8998 93.6115 84.6862 93.6754C69.7088 93.7355 57.6302 105.713 57.6752 120.459Z" fill="#FBE330"/>
<path d="M229.967 96.9627C229.956 106.175 222.932 113.392 214.053 113.317C204.97 113.238 197.984 106.152 197.961 96.9965C197.939 87.8971 205.098 80.6161 214.011 80.6799C223.142 80.7438 229.979 87.7205 229.964 96.9627H229.967Z" fill="#FBE330"/>
<path d="M239.714 138.068C230.729 138.109 223.63 130.964 223.592 121.845C223.555 112.75 230.931 105.514 240.265 105.487C248.436 105.465 255.895 113.231 256.011 121.89C256.131 130.618 248.668 138.027 239.71 138.068H239.714Z" fill="#FBE330"/>
<path d="M171.382 121.387C171.539 112.502 178.724 105.408 187.469 105.506C196.413 105.604 203.493 113.009 203.365 122.123C203.234 131.407 196.259 138.192 186.97 138.075C177.712 137.959 171.209 131.001 171.382 121.387Z" fill="#FBE330"/>
<path d="M229.967 145.492C229.915 154.501 222.857 161.737 214.296 161.564C204.7 161.369 197.83 154.426 197.95 145.037C198.066 135.983 205.334 128.792 214.218 128.95C223.289 129.111 230.02 136.182 229.964 145.492H229.967Z" fill="#FBE330"/>
<path d="M150.329 115.958C146.407 116.067 143.073 112.892 142.998 108.978C142.923 105.112 145.736 102.253 149.722 102.147C154.001 102.035 157.064 104.852 157.049 108.884C157.034 112.603 153.944 115.857 150.329 115.954V115.958Z" fill="#FBE330"/>
<path d="M84.8287 141.081C80.7337 141.044 78.1087 138.312 78.1987 133.067C78.2775 128.567 76.7663 126.989 72.2438 127.173C66.9676 127.391 64.3351 124.915 64.2451 120.681C64.1514 116.345 66.6638 113.832 71.9888 114.016C76.7513 114.181 78.4612 112.411 78.1387 107.745C77.835 103.368 80.04 100.442 84.4949 99.8932C88.5299 99.3935 91.6536 102.253 91.7361 107.332C91.8149 112.1 93.9374 113.456 98.2011 113.817C103.537 114.267 105.99 116.867 105.787 120.936C105.589 125.016 102.877 127.376 97.5186 127.191C93.1349 127.041 91.8486 128.766 91.8561 132.94C91.8674 138.41 89.2199 141.122 84.8212 141.085L84.8287 141.081Z" fill="#FBE330"/>
</svg>
