<svg width="150" height="66" viewBox="0 0 150 66" fill="none" xmlns="http://www.w3.org/2000/svg">
<path d="M66.4366 9.74459H82.1398C86.2813 9.74459 86.9715 9.80211 88.1219 9.91715C92.6661 10.5499 93.9315 12.333 93.9315 18.3152C93.9315 23.262 93.0687 25.2752 90.4228 26.3106C88.8697 26.8858 87.3166 27.0584 82.1973 27.0584H73.3966V32.6379H66.4366V9.74459ZM82.0823 21.3063C85.2459 21.2488 85.3609 21.2488 85.9361 20.9612C86.6264 20.5585 86.8565 19.9833 86.8565 18.3152C86.8565 16.7046 86.5689 16.0719 85.7061 15.7268C85.2459 15.4967 85.1309 15.4967 82.0247 15.4967H73.2816V21.3063H82.0823Z" fill="white"/>
<path d="M101.984 9.74459V32.6379H95.8873V9.74459H101.984Z" fill="white"/>
<path d="M104.861 21.4788C105.033 19.1205 105.723 17.9701 107.564 16.9922C108.944 16.2444 111.763 15.9568 116.767 15.9568C122.117 15.9568 123.382 16.1869 124.705 17.5674C125.741 18.6603 126.086 19.9258 126.086 22.8593V32.6379H120.276V30.3946H119.988C119.528 31.4299 118.953 31.9476 117.86 32.4653C116.825 32.9255 115.329 33.0405 111.245 33.0405C107.967 33.0405 106.414 32.6379 105.321 31.66C104.515 30.9123 104.17 29.7043 104.17 27.9787C104.17 25.0451 105.263 23.4345 107.622 22.8018C109.06 22.3992 110.67 22.3417 115.157 22.3417C117.975 22.3417 118.781 22.5717 119.701 23.6071H119.988V22.7443C119.988 20.2134 119.528 19.8683 115.847 19.8683C111.475 19.8683 111.073 19.9833 110.9 21.4788H104.861ZM111.188 26.0805C110.613 26.3681 110.267 26.8283 110.267 27.4035C110.267 28.7265 111.188 29.1291 114.466 29.1291C118.723 29.1291 119.931 28.7265 119.931 27.2884C119.931 26.6557 119.586 26.138 118.953 25.9079C118.55 25.7354 117.63 25.6779 114.984 25.6779C112.913 25.7354 111.648 25.8504 111.188 26.0805Z" fill="white"/>
<path d="M133.218 16.417L137.877 28.2088L142.997 16.417H149.727L141.099 34.7662C139.431 38.2749 139.315 38.4475 138.28 39.0802C137.302 39.7129 135.922 40.0006 133.851 40.0006C132.586 40.0006 131.665 39.943 131.263 39.8855V35.6865C131.378 35.629 131.493 35.629 131.55 35.629H132.643C134.656 35.6865 135.289 35.1113 136.267 32.6379H133.851L126.603 16.417H133.218Z" fill="white"/>
<path d="M6.78746 50.9295C6.78746 52.195 6.9025 52.7702 7.47771 53.1153C8.22548 53.5755 8.283 53.5755 13.805 53.5755C21.2827 53.5179 21.2827 53.518 21.2827 51.5622C21.2827 50.1817 20.765 49.8366 18.5217 49.8366C17.7164 49.8366 15.4731 49.7216 13.0572 49.6065C10.5263 49.4915 8.22548 49.3765 7.47771 49.3765C4.1415 49.2614 2.53092 48.8012 1.49554 47.6508C0.632729 46.6155 0.230083 45.1199 0.230083 42.8191C0.230083 39.4253 1.03538 37.3546 2.64596 36.4918C4.42911 35.5139 6.44234 35.3414 14.6678 35.3414C21.0526 35.3414 23.4685 35.629 25.0791 36.6068C26.5746 37.5272 27.1498 39.0227 27.1498 41.8412C27.1498 41.9563 27.1498 42.4739 27.0923 42.8766H20.4199C20.3624 41.7262 20.3049 41.4386 19.9022 41.0934C19.327 40.6333 18.5792 40.5758 13.2873 40.5758C7.42019 40.5758 6.96002 40.6908 6.96002 42.4164C6.96002 43.2217 7.24763 43.6819 7.93788 43.912C8.57061 44.0845 10.3538 44.1996 15.3581 44.3146C22.7207 44.5447 24.2738 44.7173 25.7118 45.5801C27.3799 46.5579 28.0127 48.1685 28.0127 51.3897C28.0127 55.2436 27.0923 57.1993 24.9065 58.1196C23.526 58.7523 20.765 58.9249 13.6324 58.9249C6.78746 58.9249 3.96894 58.6373 2.30083 57.717C0.575208 56.6241 0 55.2436 0 52.0224V50.9295H6.78746Z" fill="white"/>
<path d="M30.1984 42.2439H35.9505V44.4297H36.2381C37.2735 42.4164 38.9991 41.8412 43.6583 41.8412C47.8573 41.8412 49.9856 42.3014 51.3661 43.6244C52.6891 44.7748 53.0342 46.3854 53.0342 50.4693C53.0342 57.5444 51.4812 58.9249 43.3707 58.9249C39.2292 58.9249 37.7337 58.3497 36.5257 56.394H36.2381V65.2522H30.1984V42.2439ZM36.2381 50.5844C36.2381 53.748 37.1585 54.3808 41.6451 54.3808C43.8884 54.3808 45.3264 54.1507 46.0167 53.6905C46.7645 53.2303 46.9945 52.3675 46.9945 50.1817C46.9945 47.0756 46.1892 46.5004 41.8752 46.5004C36.9859 46.3854 36.2381 46.9031 36.2381 50.5844Z" fill="white"/>
<path d="M75.8125 43.3368C77.4231 44.5447 77.8832 46.0402 77.8832 50.1242C77.8832 54.6108 77.4806 56.1064 75.985 57.3143C74.432 58.5798 72.4187 58.9249 66.4366 58.9249C60.3394 58.9249 58.3261 58.5798 56.7731 57.3143C55.2775 56.1064 54.8749 54.5533 54.8749 49.8941C54.8749 46.0978 55.3351 44.5447 56.9456 43.3943C58.4412 42.3014 60.7995 41.8987 66.3215 41.8987C71.9586 41.8412 74.3169 42.2439 75.8125 43.3368ZM60.9721 50.4693C60.9721 52.5976 61.2597 53.3454 62.2376 53.748C63.0428 54.1507 64.4233 54.3232 66.4366 54.3232C71.0382 54.3232 71.8435 53.748 71.8435 50.2968C71.8435 48.1685 71.4984 47.3632 70.463 46.9031C69.7153 46.5579 68.2197 46.3854 66.4366 46.3854C61.8349 46.3854 60.9721 47.0181 60.9721 50.4693Z" fill="white"/>
<path d="M85.8786 42.2439V44.6597H86.1662C87.3167 42.589 89.0423 41.7837 92.436 41.7837C97.3253 41.7837 98.9934 43.4518 98.9934 48.2836V49.3765H93.2413C93.2413 46.9606 92.551 46.3278 90.0777 46.3278C88.6972 46.3278 87.5467 46.7305 86.9715 47.4783C86.3963 48.2836 86.2237 49.1464 86.2237 51.6773V58.4072H80.1265V42.2439H85.8786Z" fill="white"/>
<path d="M109.175 38.505V42.2439H118.781V46.6154H109.175V51.3322C109.175 53.0578 109.232 53.2879 109.462 53.748C109.75 54.3232 110.383 54.5533 111.59 54.5533C112.798 54.5533 113.489 54.3232 113.776 53.748C114.006 53.3454 114.006 53.2303 114.006 51.5622H119.586C119.528 54.6684 119.298 55.6462 118.378 56.8542C117.17 58.4072 115.272 58.9249 111.13 58.9249C107.276 58.9249 105.666 58.5798 104.458 57.4294C103.595 56.6241 103.307 55.7037 103.192 53.9781C103.135 53.4604 103.135 53.4604 103.135 51.3897V46.6154H99.9712V42.2439H103.135V38.505H109.175Z" fill="white"/>
<path d="M127.121 53.2879C127.236 54.6684 128.387 55.1285 132.183 55.1285C136.152 55.1285 137.245 54.7834 137.245 53.633C137.245 53.0578 136.9 52.7127 136.209 52.4826C135.749 52.3675 135.749 52.3675 131.033 52.31C126.661 52.31 126.661 52.31 125.626 52.195C122.347 51.7348 121.024 50.3543 121.024 47.3632C121.024 44.9473 121.887 43.3943 123.67 42.704C124.993 42.1288 127.811 41.8987 132.24 41.8987C137.762 41.8987 139.776 42.2439 141.156 43.3943C142.019 44.0845 142.307 44.9473 142.479 46.9031H136.324C136.209 46.3854 136.094 46.2703 135.922 46.1553C135.404 45.8102 134.196 45.6951 132.125 45.6951C128.329 45.6951 127.179 45.9827 127.179 47.0181C127.179 47.6508 127.639 47.9959 128.617 48.0535C129.594 48.111 130.687 48.1685 136.9 48.1685C141.616 48.226 143.399 49.549 143.399 53.2303C143.399 55.6462 142.594 57.1993 140.869 57.9471C139.431 58.6373 136.497 58.9249 131.78 58.9249C125.856 58.9249 123.842 58.5798 122.404 57.2568C121.427 56.3365 121.024 55.2436 120.966 53.3454H127.121V53.2879Z" fill="white"/>
<path d="M62.18 20.2134C61.2022 15.3816 59.7066 10.78 57.2908 6.4659C56.1979 4.51019 54.9324 2.72704 53.0917 1.40406C51.8263 0.48373 50.4458 -0.0339576 48.8927 0.0235633C46.2468 0.196126 44.061 1.28902 42.2203 3.18721C42.0477 3.35977 41.8752 3.47481 41.6451 3.47481C38.1363 3.47481 34.6276 3.47481 31.0613 3.47481C30.8312 3.47481 30.6586 3.41729 30.5436 3.24473C29.5657 2.09431 28.3003 1.28902 26.9773 0.713814C24.1012 -0.494124 21.4553 -0.20652 19.0394 1.86423C18.004 2.72704 17.1987 3.76242 16.451 4.85531C13.5749 9.2269 11.9643 14.0587 10.8139 19.1205C10.4113 20.7311 10.2387 22.3992 10.0086 24.0673C10.0086 25.3903 10.0086 26.7708 10.0086 28.0937C10.0086 28.2088 10.0661 28.3813 10.0661 28.4964C10.2387 29.5318 10.4688 30.5671 11.1015 31.4299C11.7918 32.4078 12.7121 32.8104 13.92 32.6954C14.8979 32.5804 15.8182 32.1777 16.6235 31.7176C19.0394 30.2795 21.0526 28.3238 22.8933 26.1956C23.2959 25.7354 23.2959 25.7354 23.6411 26.2531C25.2517 28.6114 28.0702 29.7618 30.7737 29.1291C33.4196 28.4964 35.0877 26.8858 35.9505 24.2974C36.0081 24.0673 36.0081 23.7797 36.3532 23.7797C36.7558 23.7797 36.6983 24.0673 36.8133 24.2974C37.7337 27.0008 39.5743 28.7265 42.3929 29.1866C45.2114 29.5893 47.5122 28.5539 49.1803 26.1956C49.4679 25.7929 49.583 25.9079 49.8706 26.1956C51.136 27.576 52.5165 28.9566 54.0121 30.1645C55.3926 31.2574 56.8306 32.2928 58.6137 32.6954C60.1093 33.0405 61.2022 32.5228 61.95 31.1999C62.065 30.9698 62.18 30.7972 62.2376 30.5671C62.6402 29.5318 62.8128 28.4964 62.8703 27.4035C62.8703 24.9301 62.6402 22.5717 62.18 20.2134ZM24.6189 14.979C24.6189 15.3241 24.6189 15.7268 24.6189 16.0719C24.6189 16.6471 24.2738 16.9922 23.7561 16.9922C22.8933 16.9922 22.088 16.9922 21.2252 16.9922C20.65 16.9922 20.4199 16.6471 20.3624 16.1294C20.3624 15.7268 20.3624 15.3241 20.3624 14.9215C20.3624 14.5763 20.2473 14.4613 19.9022 14.4613C19.4996 14.4613 19.0969 14.4613 18.6943 14.4613C18.1191 14.4613 17.9465 14.2312 17.889 13.656C17.889 13.1958 17.889 12.7357 17.889 12.333C17.889 11.9879 17.889 11.6428 17.889 11.2976C17.889 10.4348 18.0615 10.2623 18.9819 10.2623C19.2695 10.2623 19.5571 10.2623 19.7872 10.2623C20.2473 10.3198 20.4199 10.1472 20.3624 9.68707C20.3049 9.28442 20.3624 8.93929 20.3624 8.53665C20.3624 8.01896 20.65 7.73136 21.1677 7.73136C22.088 7.73136 22.9508 7.73136 23.8712 7.73136C24.3888 7.73136 24.6189 8.01896 24.6764 8.53665C24.6764 8.93929 24.6764 9.34194 24.6764 9.74459C24.6764 10.0897 24.849 10.2048 25.1366 10.2048C25.5393 10.2048 25.9419 10.2048 26.3445 10.2048C26.9198 10.2048 27.1498 10.4348 27.1498 11.01C27.1498 11.8729 27.1498 12.7357 27.1498 13.5985C27.1498 14.1737 26.9198 14.4038 26.3445 14.4038C25.9419 14.4038 25.5968 14.4038 25.1941 14.4038C24.734 14.4038 24.5614 14.5763 24.6189 14.979ZM29.2781 26.3681C27.0348 26.3681 25.2517 24.585 25.2517 22.2841C25.2517 20.0983 27.0923 18.2577 29.3356 18.2577C31.5789 18.2577 33.3621 20.0983 33.3621 22.3992C33.3621 24.6425 31.5789 26.3681 29.2781 26.3681ZM43.4282 26.3681C41.1274 26.3681 39.4018 24.6425 39.4018 22.3417C39.4018 20.0983 41.1849 18.2577 43.4282 18.2577C45.614 18.2577 47.4547 20.0983 47.4547 22.2841C47.4547 24.585 45.6716 26.3681 43.4282 26.3681ZM47.2246 13.8286C46.3618 13.8286 45.7866 13.1958 45.7866 12.333C45.7866 11.4702 46.4193 10.895 47.2821 10.895C48.1449 10.895 48.7202 11.5277 48.7202 12.3905C48.7202 13.1958 48.0874 13.8286 47.2246 13.8286ZM50.5033 17.1073C49.698 17.1073 48.9502 16.3595 48.9502 15.5542C48.9502 14.8064 49.698 14.1162 50.4458 14.1162C51.2511 14.1162 51.9413 14.8064 51.9413 15.6117C51.9988 16.417 51.3661 17.1073 50.5033 17.1073ZM50.5033 10.6074C49.698 10.6074 49.0078 9.91715 49.0078 9.11186C49.0078 8.30657 49.698 7.61632 50.5033 7.61632C51.3661 7.61632 51.9988 8.24905 51.9988 9.11186C51.9988 9.85963 51.3086 10.6074 50.5033 10.6074ZM53.782 13.8286C52.9192 13.8286 52.2865 13.1958 52.2865 12.333C52.2865 11.4702 52.9192 10.8375 53.782 10.8375C54.6448 10.8375 55.2775 11.4702 55.3351 12.333C55.2775 13.1383 54.5873 13.8286 53.782 13.8286Z" fill="#FBE330"/>
<path d="M29.3356 19.4081C27.725 19.4081 26.4021 20.7311 26.4021 22.3992C26.4021 24.0098 27.725 25.3327 29.3356 25.3327C30.9462 25.3327 32.2692 24.0673 32.2692 22.3992C32.2692 20.7311 30.9462 19.4081 29.3356 19.4081ZM30.6586 20.0408C30.5436 20.0408 30.4285 20.0983 30.3135 20.0983C30.256 20.0983 30.1984 20.0983 30.1409 20.1559C30.0834 20.1559 30.0834 20.1559 30.0259 20.0983C29.8533 19.9833 29.7383 19.8107 29.5657 19.6957C29.9684 19.6957 30.3135 19.8107 30.6586 20.0408ZM27.7826 20.1559C27.7826 20.0983 27.7826 20.0983 27.8401 20.0983C28.2427 19.8683 28.6454 19.6957 29.1055 19.6957C29.1631 19.6957 29.1631 19.6957 29.2206 19.7532C29.3932 19.9258 29.6232 20.0983 29.7958 20.3284C29.8533 20.3859 29.8533 20.3859 29.7958 20.4435C29.7383 20.6735 29.6232 20.9036 29.5657 21.0762C29.5657 21.1337 29.5082 21.1337 29.4507 21.1337C29.1055 21.2488 28.7029 21.3638 28.3578 21.4788C28.3003 21.4788 28.3003 21.4788 28.3003 21.4788C28.1277 21.3638 27.8976 21.1912 27.725 21.0762C27.6675 21.0762 27.6675 21.0187 27.6675 21.0187C27.725 20.7311 27.7826 20.4435 27.7826 20.1559ZM28.4728 22.1691C28.4728 22.054 28.4728 21.939 28.4728 21.824C28.4728 21.7664 28.4728 21.7664 28.5303 21.7664C28.8755 21.6514 29.2206 21.5364 29.5657 21.4213C29.6232 21.4213 29.6232 21.4213 29.6808 21.4788C29.9108 21.7664 30.0834 22.054 30.3135 22.3417C30.371 22.3992 30.371 22.4567 30.3135 22.4567C30.0834 22.7443 29.8533 23.0319 29.6808 23.3195C29.6808 23.377 29.6232 23.377 29.5657 23.3195C29.2206 23.2045 28.8755 23.0894 28.5303 22.9744C28.4728 22.9744 28.4728 22.9169 28.4728 22.8593C28.5303 22.6293 28.5303 22.3992 28.4728 22.1691ZM26.9773 21.0187C27.0923 20.7886 27.2649 20.616 27.4374 20.4435L27.495 20.3859V20.4435C27.495 20.616 27.4374 20.7886 27.4374 20.9036C27.4374 20.9612 27.4374 20.9612 27.3799 21.0187C27.2074 21.1337 27.0348 21.1912 26.8622 21.3063C26.8622 21.1912 26.9198 21.1337 26.9773 21.0187ZM26.9198 23.4921C27.1498 23.5496 27.2649 23.6646 27.4374 23.7222C27.495 23.7222 27.495 23.7797 27.495 23.7797C27.5525 24.0098 27.61 24.1823 27.61 24.4124C27.3224 24.1248 27.0923 23.8372 26.9198 23.4921ZM27.495 23.4345C27.2649 23.3195 26.9773 23.2045 26.7472 23.0894C26.6897 23.0894 26.6897 23.0319 26.6897 23.0319C26.6322 22.8018 26.5746 22.5717 26.5746 22.3417C26.5746 22.1691 26.5746 21.939 26.6322 21.7664C26.6322 21.7089 26.6897 21.7089 26.6897 21.6514C26.9198 21.5364 27.1498 21.3638 27.3799 21.2488C27.4374 21.2488 27.4374 21.2488 27.495 21.2488C27.6675 21.3638 27.8976 21.5364 28.0702 21.6514C28.1277 21.6514 28.1277 21.7089 28.1277 21.7664C28.1277 22.1116 28.1277 22.5142 28.1277 22.8593C28.1277 22.9744 28.1277 22.9744 28.0127 23.0319C27.8401 23.1469 27.6675 23.262 27.495 23.4345C27.61 23.4921 27.5525 23.4921 27.495 23.4345ZM29.1631 24.9876L29.1055 25.0451C28.8179 25.0451 28.5303 24.9301 28.2427 24.815C28.1852 24.7575 28.0702 24.7575 28.0127 24.7C27.9551 24.7 27.9551 24.6425 27.9551 24.6425C27.8976 24.3549 27.8401 24.0673 27.7826 23.7797C27.7826 23.7222 27.7826 23.7222 27.8401 23.6646C28.0127 23.5496 28.2427 23.377 28.4153 23.262C28.4728 23.262 28.4728 23.2045 28.5303 23.262C28.8755 23.377 29.2206 23.4921 29.5657 23.6071C29.6232 23.6071 29.6232 23.6646 29.6232 23.6646C29.6808 23.8947 29.7383 24.1248 29.8533 24.3549C29.8533 24.4124 29.8533 24.4124 29.8533 24.4124C29.5657 24.585 29.3932 24.7575 29.1631 24.9876ZM29.5657 24.9876C29.5082 24.9876 29.5082 24.9876 29.5657 24.9876C29.6232 24.9301 29.6232 24.8726 29.6808 24.815C29.7958 24.7 29.8533 24.6425 29.9684 24.5274C30.0259 24.4699 30.0259 24.4699 30.0834 24.4699C30.3135 24.5274 30.486 24.5274 30.7161 24.585C30.3135 24.8726 29.9684 24.9876 29.5657 24.9876ZM31.0613 24.4124C31.0037 24.4124 31.0037 24.4699 31.0037 24.4124C30.8312 24.4124 30.7161 24.3549 30.5436 24.3549C30.371 24.3549 30.256 24.2974 30.0834 24.2974C30.0259 24.2974 30.0259 24.2974 30.0259 24.2398C29.9684 24.0098 29.9108 23.7797 29.8533 23.5496V23.4921C30.0834 23.2045 30.3135 22.9169 30.486 22.6293C30.5436 22.5142 30.6586 22.4567 30.7737 22.4567C30.9462 22.4567 31.1188 22.4567 31.3489 22.4567C31.4064 22.4567 31.4064 22.4567 31.4639 22.5142C31.5789 22.7443 31.694 22.9744 31.8666 23.2045C31.8666 23.262 31.8666 23.262 31.8666 23.3195C31.6365 23.7222 31.4064 24.1248 31.0613 24.4124ZM31.9241 21.7089C32.0391 22.1116 32.0391 22.5142 31.9241 22.9169C31.8666 22.9169 31.8666 22.8593 31.8666 22.8018C31.809 22.6868 31.694 22.5142 31.6365 22.3992C31.6365 22.3417 31.6365 22.3417 31.6365 22.2841C31.7515 22.1116 31.809 21.8815 31.9241 21.7089ZM31.809 21.3638C31.694 21.5939 31.5789 21.8815 31.4639 22.1116C31.4639 22.1691 31.4064 22.1691 31.4064 22.1691C31.2913 22.1691 31.1763 22.1691 31.0613 22.1691C30.9462 22.1691 30.8887 22.1691 30.7737 22.1691C30.7161 22.1691 30.6586 22.1691 30.6011 22.1116C30.4285 21.8815 30.256 21.6514 30.0834 21.4213C30.0259 21.3638 29.9684 21.3063 29.9108 21.2488V21.1912C29.9684 20.9612 30.0834 20.7311 30.1409 20.501C30.1409 20.4435 30.1409 20.4435 30.1984 20.4435C30.486 20.3859 30.7161 20.3284 31.0037 20.3284C31.0613 20.3284 31.1188 20.3284 31.1188 20.3859C31.4064 20.6735 31.6365 20.9612 31.809 21.3638Z" fill="#FBE330"/>
<path d="M43.8309 19.293C42.2203 19.063 40.7248 20.2134 40.4372 21.824C40.1496 23.5496 41.3 25.0451 42.9106 25.3327C42.9681 25.3327 43.0256 25.3327 43.0831 25.3903C43.3132 25.3903 43.5433 25.3903 43.7734 25.3903C44.0034 25.3327 44.2911 25.2752 44.5211 25.2177C45.614 24.7575 46.2468 23.9522 46.4768 22.8018V22.7443C46.4768 22.5142 46.4768 22.2841 46.4768 22.054C46.4193 21.7664 46.3618 21.5364 46.3043 21.3063C45.7866 20.0983 44.9813 19.4656 43.8309 19.293ZM43.6008 19.7532C43.6008 19.6382 43.6008 19.6382 43.7158 19.6382C44.2335 19.6957 44.6937 19.8683 45.0963 20.2134C45.1539 20.2709 45.1539 20.2709 45.0963 20.3284C44.6362 20.7886 44.4061 21.3638 44.3486 21.9965C44.3486 22.054 44.2911 22.1116 44.2335 22.1116C44.061 22.1116 43.8884 22.1116 43.7158 22.1116C43.6008 22.1116 43.6008 22.1116 43.6008 21.9965C43.6008 21.5939 43.6008 21.2488 43.6008 20.8461C43.6008 20.501 43.6008 20.0983 43.6008 19.7532ZM41.7601 20.2134C42.1628 19.8683 42.6229 19.6957 43.1982 19.6382C43.2557 19.6382 43.3132 19.6382 43.3132 19.7532C43.3132 20.1559 43.3132 20.501 43.3132 20.9036C43.3132 21.3063 43.3132 21.6514 43.3132 22.054C43.3132 22.1691 43.3132 22.1691 43.1982 22.1691C43.0256 22.1691 42.853 22.1691 42.6805 22.1691C42.6229 22.1691 42.5654 22.1691 42.5654 22.054C42.5079 21.4213 42.2203 20.8461 41.7601 20.3284C41.6451 20.2709 41.7026 20.2709 41.7601 20.2134ZM41.3575 20.616C41.415 20.5585 41.415 20.5585 41.4725 20.616C41.8177 21.0187 42.0477 21.4788 42.1053 22.054C42.1053 22.1691 42.1053 22.1691 41.9902 22.1691C41.8177 22.1691 41.5876 22.1691 41.415 22.1691C41.2424 22.1691 41.0124 22.1691 40.8398 22.1691C40.7248 22.1691 40.7248 22.1691 40.7248 22.054C40.8398 21.4788 41.0124 21.0187 41.3575 20.616ZM41.3575 24.0098C41.0124 23.6071 40.8398 23.1469 40.7823 22.6293C40.7823 22.5142 40.7823 22.5142 40.8973 22.5142C41.0699 22.5142 41.3 22.5142 41.4725 22.5142C41.6451 22.5142 41.8752 22.5142 42.0477 22.5142C42.1053 22.5142 42.1628 22.5142 42.1628 22.6293C42.1053 23.1469 41.8752 23.6646 41.5301 24.0673C41.415 24.0673 41.415 24.0673 41.3575 24.0098ZM43.2557 23.7222C43.2557 24.1248 43.2557 24.4699 43.2557 24.8726C43.2557 24.9876 43.2557 24.9876 43.1406 24.9876C42.6229 24.9301 42.1628 24.7575 41.7601 24.4124C41.7026 24.3549 41.7026 24.2974 41.7601 24.2974C42.1053 23.9522 42.3353 23.5496 42.4504 23.0894C42.5079 22.9169 42.5079 22.8018 42.5079 22.6293C42.5079 22.5717 42.5654 22.5142 42.6229 22.5142C42.7955 22.5142 42.9681 22.5142 43.1406 22.5142C43.1982 22.5142 43.2557 22.5142 43.2557 22.6293C43.2557 22.9744 43.2557 23.377 43.2557 23.7222ZM45.0963 24.4124C44.6937 24.7 44.2911 24.9301 43.7734 24.9876C43.4858 25.0451 43.5433 24.9876 43.5433 24.815C43.5433 24.4699 43.5433 24.1248 43.5433 23.7797C43.5433 23.377 43.5433 23.0319 43.5433 22.6293C43.5433 22.5142 43.5433 22.5142 43.6583 22.5142C43.8309 22.5142 44.0035 22.5142 44.176 22.5142C44.2335 22.5142 44.2911 22.5142 44.2911 22.6293C44.3486 23.262 44.6362 23.8372 45.0963 24.3549C45.1539 24.2974 45.1539 24.3549 45.0963 24.4124ZM45.499 24.0098C45.4415 24.0673 45.4415 24.0673 45.3839 24.0098C45.0388 23.6071 44.8087 23.1469 44.6937 22.6293C44.6937 22.4567 44.6937 22.4567 44.8663 22.4567C45.0388 22.4567 45.2114 22.4567 45.3839 22.4567C45.5565 22.4567 45.7866 22.4567 45.9592 22.4567C46.0167 22.4567 46.0742 22.4567 46.0742 22.5717C46.0167 23.1469 45.8441 23.6071 45.499 24.0098ZM45.9592 22.1116C45.7866 22.1116 45.5565 22.1116 45.3839 22.1116C45.1539 22.1116 44.9813 22.1116 44.7512 22.1116C44.6937 22.1116 44.6362 22.1116 44.6937 21.9965C44.7512 21.4213 44.9813 20.9612 45.3264 20.5585C45.384 20.501 45.3839 20.501 45.499 20.5585C45.8441 20.9612 46.0167 21.4213 46.0742 21.939C46.1317 22.1116 46.0742 22.1116 45.9592 22.1116Z" fill="#FBE330"/>
<path d="M149.957 54.7259C149.554 54.3808 149.152 54.5533 148.806 54.8409C148.749 54.8985 148.691 54.956 148.634 55.0135C148.404 55.1861 148.231 55.4161 148.059 55.6462C147.829 55.9338 147.598 56.2214 147.311 56.394C146.908 56.6241 146.506 56.6816 146.103 56.4515C145.355 56.0489 145.01 55.3011 145.24 54.4958C145.413 53.8056 145.815 53.2879 146.333 52.8277C146.563 52.6551 146.793 52.5976 147.023 52.5976C148.404 52.4251 149.727 53.3454 149.957 54.7259C150.014 54.6684 150.014 54.6684 149.957 54.7259Z" fill="#FBE330"/>
<path d="M145.7 53.1728C145.528 53.3454 145.355 53.5755 145.24 53.8056C145.01 54.2082 144.837 54.6108 144.837 55.0135C144.837 55.5887 145.01 56.0489 145.413 56.4515C145.7 56.7391 146.045 56.9117 146.448 56.9692C146.908 57.0267 147.311 56.8542 147.656 56.5666C148.001 56.279 148.231 55.8763 148.519 55.5312C148.691 55.3011 148.864 55.1285 149.037 54.956C149.094 54.8985 149.209 54.8409 149.324 54.8409C149.497 54.7834 149.669 54.8409 149.784 55.0135C149.899 55.2436 149.957 55.4737 149.899 55.7037C149.669 56.7966 148.749 57.6595 147.598 57.7745C145.988 57.9471 144.607 56.6816 144.665 55.0135C144.722 54.2657 145.01 53.633 145.528 53.1728C145.643 53.1728 145.643 53.1153 145.7 53.1728Z" fill="#FBE330"/>
</svg>
