<?xml version="1.0" encoding="utf-8"?>
<!-- Generator: Adobe Illustrator 28.2.0, SVG Export Plug-In . SVG Version: 6.00 Build 0)  -->
<svg version="1.1" id="Ebene_1" xmlns="http://www.w3.org/2000/svg" xmlns:xlink="http://www.w3.org/1999/xlink" x="0px" y="0px"
	 viewBox="0 0 1208.1 161.4" style="enable-background:new 0 0 1208.1 161.4;" xml:space="preserve">
<style type="text/css">
	.st0{fill:#FFFFFF;}
	.st1{fill-rule:evenodd;clip-rule:evenodd;fill:#FFFFFF;}
</style>
<g>
	<g>
		<path class="st0" d="M138.5,19.7v-0.3l-0.2-1.1c-0.9-2-3.1-3-6.4-3l-13.2,0.1c-1.3,0.1-2.6,0.4-3.8,0.9l1.1-0.7v-0.2l-61.8-0.2
			l-12.8,7.7v0.2h12.4L40.8,45.9V46h8.6c0.1,0,4.5-7.6,13.1-22.8h8.2l9.5-5.8L63.9,45.9H64l0.1,0.1h38.2l0.1-0.1
			c2.7-4.8,4.1-7.4,4.4-7.6h13.1v0.2l-4.1,7.2l0.1,0.1l-0.1,0.1h8.5c0.3-0.3,3.8-6.4,10.7-18.5C137.3,23.6,138.5,21,138.5,19.7z
			 M112.1,28.8c1.8-3.8,4.4-5.7,7.9-5.7h4.4c0.9,0,1.5,0.1,2,0.2c0.5,0.2,0.8,0.5,1,0.9V25c0,0.3-0.2,0.9-0.7,1.8
			c-0.1,0.2-0.3,0.5-0.4,0.7c-0.5,0.8-1.1,1.7-1.8,2.8c0,0.3-0.3,0.5-0.8,0.6H111C111,30.6,111.4,30,112.1,28.8z M76.9,38.5
			c0.5-1.2,1.3-2.7,2.5-4.4h5.2c0.4-0.1,3.9-2.1,10.6-6v-0.2H82.9l2.6-4.6h17.8l6.9-4.1c-0.5,0.4-1,0.9-1.5,1.4c0,0,0,0,0,0
			c-0.4,0.4-0.8,0.8-1.2,1.3c0,0.1-0.1,0.2-0.2,0.3c0,0,0,0,0,0c-0.6,0.8-3.7,6.3-9.5,16.4H76.9z"/>
		<path class="st0" d="M190.4,18.3c-0.8-1.8-2.5-2.7-5.3-2.7h-40.8l-17.2,30.3h0.1l0.1,0.1l8.3-0.1c0.2-0.2,12.9-22.4,13.1-22.5
			h11.7c0,0-12.8,22.1-12.9,22.5h8.6c0.3-0.3,4.6-7.8,13-22.5h8.9c1.2,0.1,1.9,0.5,1.9,1.2l-0.1,0.3c0,0.3-3.9,7.3-11.7,21l0.1,0.1
			l8.5-0.1c2.2-3.6,5.3-9.3,9.5-17c3-4.9,4.4-8,4.4-9.5L190.4,18.3z"/>
	</g>
	<g>
		<path class="st0" d="M96.7,58.3V58c0-0.9-0.3-1.8-0.8-2.6c-2.1-2.8-6.6-4.2-13.4-4.2H37.7L18.7,78C6.2,95.6,0,104.5,0,104.9h18.3
			c0.5-0.3,10-13.7,28.5-40.2h21.9c2.5,0,3.8,0.7,3.8,2.1v0.5c0,0.9-0.3,1.9-1,2.9l-24.1,34.5v0.2H66c2.4-3,10-13.9,22.9-32.7
			C94.1,65.5,96.7,60.9,96.7,58.3z"/>
		<path class="st0" d="M298.9,51.2H108.2l-37.5,53.5h0.2l0.2,0.2h190c11.3,0,20.3-3.2,26.9-9.6c1.7-1.9,7.7-10.3,18.1-25.2
			c4-5.3,6-9.1,6-11.2v-0.7C312,54,307.6,51.7,298.9,51.2z M104.1,83.9h11.2c0.8-0.2,8.4-3.7,22.9-10.6V73h-26.5l5.6-8.1h38.5
			L180,53.1l-27,38.6H98.7C99.8,89.6,101.6,87,104.1,83.9z M224,91.7H172c1.1-2.1,2.9-4.7,5.4-7.8h11.2c0.8-0.2,8.4-3.7,22.9-10.6
			V73H185l5.6-8.1h38.5l21-10.2l-16.8,23.9C229.7,83.7,226.6,88,224,91.7z M287.9,67.3l-0.2,1.5c-5.1,7.8-9.4,13.8-12.8,17.7
			c-3.7,3.3-6.9,4.9-9.6,4.9l-21.1,0.2h-1c11-15.8,17.4-24.7,19.1-26.7h21.7c2.3,0,3.7,0.8,4,2.3V67.3z"/>
		<path class="st0" d="M464.3,71.8c4.9-6.6,7.4-11.1,7.4-13.5V58l-0.2-1.1c-1.3-3.9-5.9-5.9-13.6-5.9l-106.7,0.2l-37.9,53.5v0.2
			h18.7c6.6-9.1,11.5-16.2,14.8-21.3H359l22.3-10.4v-0.3h-26.5c3.7-5.4,5.7-8.1,6-8.1h38.5l6.4-3.1c-0.3,0.3-0.6,0.5-0.9,0.8
			c-1.9,2.1-7,9.2-15.5,21.2c-5.4,6.8-8,11.6-8,14.2v0.7c0,0.9,0.2,1.6,0.6,2.1c1.9,2.9,5.7,4.4,11.4,4.4l29.3-0.2
			c10,0,18.5-3.5,25.7-10.6C449.7,92.7,455,85.3,464.3,71.8z M440.2,78.8c-4.6,8.2-10,12.4-16.1,12.4h-14.6
			c-2.3-0.6-3.4-1.5-3.4-2.9c0-1.6,2.3-5.4,7-11.4c4.4-8.1,10.9-12.2,19.3-12.2h8.4c4.3,0,6.4,0.9,6.4,2.8
			C447.2,69,444.9,72.8,440.2,78.8z"/>
		<path class="st0" d="M543,56.4c-2-3.6-6.2-5.4-12.6-5.4h-46.2c-1.1,1.2-13.6,19.1-37.7,53.7h0.2l0.2,0.2H465
			c0.3,0,3.5-4.5,9.6-13.5h28.5l-9,13.2v0.3h18.7c0.2,0,1.3-1.5,3.4-4.6c5.1-7,7.6-11.1,7.6-12.2l-0.2-0.5c-0.5-1.8-2.4-2.8-5.6-2.8
			v-0.2l5.4-0.8c4.2-1.2,8.3-5,12.2-11.4c5.2-7,7.8-11.6,7.8-14C543.4,57.6,543.3,56.9,543,56.4z M517.1,71.7
			c-2,4.2-6.6,6.3-13.6,6.3h-19.3v-0.2l9.6-13.3h19.1c4.3,0,6.4,0.8,6.4,2.3C519.3,68,518.6,69.6,517.1,71.7z"/>
		<path class="st0" d="M698.4,72.8c5.3-7,8-11.8,8-14.3c0-0.9-0.1-1.6-0.4-2.1c-2-3.6-6.3-5.4-12.8-5.4l-96.6,0.2
			c-8.7,0-16.4,2.7-22.9,8c-8.6,9-12.8,15.1-12.8,18.2l0.8,2.4c1.7,2.4,5.5,3.6,11.2,3.6h29.5c-3,5.2-8.6,7.8-16.7,7.8h-17.9
			l-27.3,13.2v0.3l16.5,0.2h28.9c3.5,0,7.7-0.7,12.4-2c5.1-1.3,10.2-4.4,15.3-9.3c6.2-7.4,9.2-12.1,9.2-14.3c0-1.2-0.3-2.2-0.8-2.9
			c-1.5-2.4-6.2-3.6-14.2-3.6h-10.6L581.1,73v-0.3c4.7-5.4,10-8.1,15.7-8.1h28.5l20-10.1c-5.6,7.6-17.5,24.4-35.8,50.3v0.2H628
			l10-13.7h29.1c7.3,0,14.3-2.2,21.1-6.7C692.4,81.1,695.8,77.2,698.4,72.8z M680.7,71c-2.5,4.7-7.1,7-13.8,7h-19.7l9.2-13.3h18.3
			c5.2,0,7.8,1,7.8,2.9C682.5,68.1,681.9,69.3,680.7,71z"/>
		<path class="st0" d="M908.4,51.2H719.7l-37.5,53.5h0.2l0.2,0.2h187.9c11.3,0,20.3-3.2,26.9-9.6c1.7-1.9,7.7-10.3,18.1-25.2
			c4-5.3,6-9.1,6-11.2v-0.7C921.5,54,917.1,51.7,908.4,51.2z M715.7,83.9h11.2c0.8-0.2,8.4-3.7,22.9-10.6V73h-26.5l5.6-8.1h38.5
			l21-10.2l-26,37h-52.2C711.4,89.6,713.2,87,715.7,83.9z M833.5,91.7h-52c1.1-2.1,2.9-4.7,5.4-7.8h11.2c0.8-0.2,8.4-3.7,22.9-10.6
			V73h-26.5l5.6-8.1h38.5l21-10.2l-16.8,23.9C839.2,83.7,836.1,88,833.5,91.7z M897.4,67.3l-0.2,1.5c-5.1,7.8-9.4,13.8-12.8,17.7
			c-3.7,3.3-6.9,4.9-9.6,4.9l-21.1,0.2h-1c11-15.8,17.4-24.7,19.1-26.7h21.7c2.3,0,3.7,0.8,4,2.3V67.3z"/>
	</g>
	<polygon class="st1" points="1208.1,0 1151.3,51.9 1106.6,129.3 1013.5,129.3 1208.1,0 	"/>
	<path class="st1" d="M1029.8,0h110.7c11,0,19.3,2.8,20.9,12.1L1103,50.9l3.7-6.6c2.7-4.7,1.4-8.8-4.7-8.8h-51.5l-47,81.4l-67,44.5
		L1029.8,0L1029.8,0z"/>
	<g>
		<path class="st0" d="M1115.8,123.3l0.5-1.3h6l-0.5,1.3h-2.2l-2.2,5.9h-1.6l2.2-5.9H1115.8z"/>
		<path class="st0" d="M1125.4,122l-0.1,5h0l3.4-5h2.3l-2.7,7.3h-1.5l1.9-5.2h0l-3.7,5.2h-1.2l0.1-5.1h0l-1.9,5.1h-1.5l2.7-7.3
			H1125.4z"/>
	</g>
</g>
</svg>
