<svg width="300" height="301" viewBox="0 0 300 301" fill="none" xmlns="http://www.w3.org/2000/svg">
<path d="M0 106.807C3.10443 98.6618 8.99525 94.8406 17.7199 95.5242C19.7184 95.6808 20.9383 95.0257 21.8592 93.1555C23.1361 90.5685 25.2769 88.6318 27.8687 87.3501C29.3307 86.6286 29.7389 85.627 29.7247 84.0985C29.6677 77.8612 29.682 71.6238 29.7104 65.3865C29.8718 32.1824 55.4098 3.56845 88.6282 1.14282C104.991 -0.0533842 121.699 -1.02174 137.991 2.08269C165.712 7.36592 186.541 30.2599 189.883 58.0953C190.884 66.4355 190.448 74.8374 190.424 83.2109C190.419 85.3707 190.861 86.8754 192.987 87.8865C195.228 88.9545 196.97 90.8058 198.047 93.0178C199.078 95.1349 200.573 95.7045 202.747 95.5242C206.644 95.2061 210.351 95.8659 213.622 98.1539C218.112 101.296 220.296 105.716 220.381 111.108C220.486 117.54 220.519 123.972 220.381 130.404C220.182 139.499 213.636 145.974 204.456 146.011C201.204 146.026 198.983 146.557 197.079 149.69C194.383 154.133 189.712 155.909 184.547 156.023C180.157 156.118 175.756 156.136 171.366 156.013C169.191 155.951 168.052 156.616 167.34 158.809C162.242 174.583 152.25 186.331 137.587 194.083C135.964 194.942 135.389 196.024 135.413 197.785C135.546 206.216 134.473 205.034 142.438 205.062C151.747 205.091 160.998 205.394 169.775 208.988C170.981 209.481 171.745 209.026 172.666 208.328C187.263 197.249 203.644 197.462 218.103 208.936C219.166 209.78 220.229 210.189 221.568 210.179C227.231 210.146 232.894 210.151 238.557 210.174C239.786 210.179 240.807 209.847 241.761 209.03C263.131 190.722 294.517 202.817 299.687 228.792C299.744 229.072 299.896 229.337 300 229.608V284.581C297.304 292.712 292.025 298.176 283.595 300.369H274.804C274.358 300.179 273.926 299.956 273.465 299.804C264.774 296.861 259.775 290.852 258.551 281.78C258.147 278.799 257.805 275.79 257.753 272.79C257.715 270.635 256.828 269.709 254.839 269.159C249.983 267.815 245.653 265.39 241.889 262.048C240.774 261.056 239.587 260.752 238.163 260.762C232.704 260.799 227.25 260.785 221.791 260.766C220.491 260.766 219.342 260.937 218.297 261.877C214.405 265.39 209.9 267.887 204.845 269.258C202.851 269.799 202.291 270.882 202.239 272.799C202.168 275.61 201.888 278.424 201.551 281.22C200.345 291.217 194.597 297.374 185.155 300.364H26.3687C19.2579 297.967 14.8481 293.14 14.6915 285.592C14.4826 275.382 13.8655 265.119 15.057 254.942C17.5538 233.595 28.9604 218.605 48.3892 209.648C58.0491 205.19 68.4209 205.015 78.807 205.067C85.6472 205.1 84.5839 205.575 84.8165 199.133C84.9114 196.48 84.1234 195.004 81.6408 193.693C68.6298 186.825 59.4209 176.443 53.9525 162.787C51.1709 155.842 51.1851 155.913 43.4858 156.004C41.1835 156.027 40.4003 156.834 40.4383 159.089C40.5332 165.421 40.4668 171.754 40.4715 178.086C40.4763 183.697 40.6377 183.896 46.1203 185.496C49.5712 186.502 51.1899 189.706 49.7848 192.754C48.6693 195.17 46.1535 196.247 42.8117 195.749C35.3497 194.633 29.8244 188.396 29.7389 180.777C29.6535 173.083 29.6772 165.383 29.7389 157.689C29.7532 155.951 29.3307 154.779 27.6503 153.958C25.144 152.728 23.1598 150.782 21.8972 148.299C21.0095 146.548 19.8085 145.955 17.9383 146.073C9.2943 146.629 3.32753 142.845 0.00474684 134.875V106.807H0ZM60.4842 115.888C60.4842 115.888 60.451 115.888 60.432 115.888C60.432 123.193 60.4415 130.504 60.432 137.809C60.4225 142.29 60.4462 146.757 61.4573 151.171C67.3054 176.671 90.1282 192.744 116.312 189.763C138.878 187.195 157.229 168.436 159.304 145.86C160.277 135.26 159.698 124.636 159.707 114.027C159.717 104.396 160.386 94.7314 159.209 85.1238C158.373 78.3121 156.047 72.0653 151.377 66.8865C144.608 59.3865 135.223 59.415 128.411 66.8865C127.296 68.1112 126.247 69.4166 124.989 70.4798C114.93 78.9814 101.483 77.7568 92.0696 67.5321C83.9953 58.7599 74.1741 59.2204 67.0823 68.771C62.8291 74.5004 60.6788 81.0463 60.5316 88.1191C60.3418 97.3707 60.4842 106.632 60.4842 115.888ZM95.2832 290.197C107.193 290.197 119.103 290.197 131.013 290.197C140.483 290.197 149.953 290.159 159.422 290.225C161.592 290.239 162.323 289.727 161.293 287.562C159.921 284.686 159.736 281.586 159.745 278.429C159.788 264.108 159.807 249.782 159.745 235.461C159.722 230.695 160.699 226.186 162.508 221.818C164.098 217.978 164.065 217.902 159.883 216.986C152.758 215.424 145.514 215.909 138.309 215.709C135.688 215.638 134.601 216.573 133.761 218.999C129.498 231.231 116.805 238.133 104.259 235.095C95.1029 232.879 89.0127 227.163 85.9367 218.292C85.424 216.815 84.9826 215.657 83.0127 215.747C77.1693 216.013 71.3212 215.524 65.4684 216.174C46.1487 218.32 30.6646 231.73 26.5491 250.613C24.019 262.238 25.6946 274.11 25.4715 285.868C25.4335 287.875 26.8576 289.2 28.8465 289.803C30.2801 290.235 31.7373 290.201 33.1994 290.201C53.8956 290.201 74.5918 290.201 95.288 290.201L95.2832 290.197ZM170.483 256.347C170.483 256.347 170.506 256.347 170.521 256.347C170.521 264.336 170.388 272.33 170.563 280.314C170.687 285.882 174.883 289.712 180.413 289.784C186.028 289.86 190.372 285.977 190.847 280.451C191.259 275.605 191.644 270.754 192.076 265.907C192.403 262.2 194.008 260.401 197.691 259.931C203.639 259.171 208.704 256.722 212.834 252.402C214.514 250.641 216.546 250.01 218.896 250.015C226.315 250.029 233.734 250.029 241.153 250.015C243.508 250.015 245.516 250.689 247.201 252.44C251.345 256.741 256.415 259.181 262.362 259.945C266.027 260.415 267.622 262.295 267.916 265.964C268.315 270.91 268.69 275.861 269.155 280.798C269.63 285.839 273.631 289.589 278.658 289.831C284.283 290.102 288.437 286.95 289.367 281.614C289.633 280.086 289.785 278.519 289.79 276.972C289.823 263.913 289.813 250.86 289.804 237.801C289.804 235.067 289.566 232.337 288.926 229.689C284.497 211.352 261.764 204.621 248.098 217.684C245.63 220.043 243.109 221.064 239.758 220.983C232.927 220.822 226.092 220.893 219.256 220.955C216.56 220.978 214.434 220.11 212.454 218.211C204.631 210.711 195.399 208.774 185.473 212.928C175.657 217.034 170.54 224.785 170.492 235.589C170.464 242.505 170.487 249.426 170.487 256.342L170.483 256.347ZM108.418 20.6571C115.12 20.6571 120.394 20.6333 125.668 20.6571C145.168 20.771 162.769 34.0194 168.351 52.6507C170.948 61.3185 170.345 70.1998 170.478 79.0479C170.592 86.415 169.13 85.5083 177.631 85.5558C179.15 85.5653 179.729 84.858 179.696 83.4102C179.468 73.8833 180.299 64.3327 178.557 54.8438C174.451 32.4767 153.062 12.9719 130.937 11.6428C117.674 10.8454 104.407 10.8406 91.1392 11.5479C67.519 12.8058 46.7041 30.6397 41.7057 53.6618C39.8592 62.1681 40.5949 70.7409 40.5 79.29C40.4193 86.4055 39.4842 85.4324 46.9557 85.5843C49.0016 85.627 49.7089 84.8723 49.6804 82.8596C49.5949 77.1112 49.6282 71.358 49.6614 65.6096C49.7896 44.6998 64.3766 26.5669 84.7595 21.7773C93.076 19.8216 101.492 21.1033 108.422 20.6571H108.418ZM158.397 58.5131C158.468 57.6919 158.568 57.3976 158.506 57.1365C155.383 43.3042 141.793 31.8454 127.552 31.5131C115.752 31.2378 103.937 31.4371 92.1313 31.4941C90.4889 31.5036 88.8323 31.8074 87.2184 32.1539C74.3307 34.9165 63 46.5273 61.4003 58.589C62.3687 58.4371 62.7864 57.5779 63.4367 57.0463C69.5411 52.0431 76.3481 49.5131 84.3323 51.0795C90.712 52.3327 95.8386 55.5938 100.073 60.502C105.717 67.0431 113.606 67.1855 119.421 61.0242C120.56 59.8185 121.623 58.5273 122.881 57.4593C129.223 52.0764 136.41 49.4514 144.802 51.146C149.9 52.176 154.187 54.8105 158.402 58.5131H158.397ZM49.6661 121.034H49.6472C49.6472 113.724 49.6092 106.413 49.6709 99.108C49.6851 97.1903 49.1108 96.1887 47.0222 96.2314C43.1203 96.3121 39.2089 96.184 35.307 96.2931C31.9082 96.3881 30.5316 97.7599 30.5127 101.206C30.4557 114.265 30.4557 127.323 30.5174 140.382C30.5316 143.648 32.1456 145.167 35.4446 145.238C39.2516 145.323 43.0633 145.181 46.8655 145.299C49.068 145.371 49.7326 144.493 49.6994 142.366C49.5997 135.255 49.6614 128.14 49.6614 121.024L49.6661 121.034ZM170.478 122.254C170.264 128.277 170.858 135.488 170.146 142.67C169.96 144.545 170.668 145.333 172.6 145.295C176.597 145.214 180.598 145.328 184.595 145.247C187.847 145.181 189.627 143.429 189.641 140.102C189.703 127.157 189.698 114.212 189.641 101.268C189.627 97.8928 187.998 96.3691 184.514 96.2836C180.907 96.1935 177.294 96.3454 173.691 96.2219C171.28 96.1412 170.411 97.1001 170.44 99.483C170.53 106.684 170.473 113.885 170.473 122.258L170.478 122.254ZM95.5158 206.41C95.5158 208.494 95.4636 209.856 95.5253 211.214C95.8766 219.208 102.299 225.36 110.169 225.26C117.916 225.165 124.424 218.728 124.628 210.905C124.704 207.991 124.557 205.072 124.68 202.162C124.78 199.746 123.926 199.129 121.543 199.651C115.424 200.985 109.229 201.284 102.978 200.51C100.642 200.22 97.8228 198.383 96.076 200.092C94.4288 201.701 95.7389 204.739 95.5158 206.41ZM19.7278 120.924C19.7278 116.942 19.7278 112.959 19.7278 108.977C19.7278 108.882 19.7278 108.782 19.7278 108.687C19.7278 107.567 19.6329 106.622 18.2136 106.276C13.3481 105.094 10.2864 107.315 10.2199 112.304C10.144 117.839 10.1487 123.379 10.2199 128.918C10.2816 133.836 12.1377 135.417 17.0981 135.364C19.1677 135.341 19.8133 134.553 19.7658 132.583C19.6661 128.7 19.7373 124.812 19.7373 120.924H19.7278ZM200.459 120.758C200.459 124.75 200.445 128.738 200.468 132.73C200.473 133.679 200.373 134.69 201.56 135.189C205.467 136.836 209.544 134.263 209.606 130C209.677 125.235 209.63 120.464 209.63 115.693C209.63 114.037 209.696 112.38 209.582 110.733C209.35 107.372 207.328 106.129 203.108 106.195C199.661 106.247 200.525 108.673 200.478 110.543C200.392 113.947 200.454 117.355 200.464 120.763L200.459 120.758Z" fill="#FBE330"/>
<path d="M109.97 170.809C103.714 170.956 97.8987 168.977 92.6108 165.374C89.6108 163.328 88.932 160.542 90.6123 157.855C92.2595 155.22 95.2595 154.575 98.25 156.469C106.116 161.448 113.891 161.719 121.785 156.516C124.714 154.584 127.733 155.244 129.441 157.855C131.027 160.28 130.377 163.28 127.671 165.25C122.473 169.029 116.649 170.966 109.97 170.814V170.809Z" fill="#FBE330"/>
<path d="M195.422 250.75C192.313 250.831 189.983 248.538 189.703 245.391C189.456 242.572 187.994 241.054 185.316 240.839C182.074 240.578 179.805 238.428 179.753 235.565C179.706 232.698 181.927 230.462 185.155 230.13C187.984 229.839 189.498 228.366 189.698 225.711C189.93 222.635 192.014 220.366 194.734 220.224C197.478 220.086 199.747 222.084 200.297 225.174C200.416 225.839 200.487 226.537 200.43 227.206C200.255 229.323 201.128 230.235 203.302 230.13C204.441 230.073 205.647 230.268 206.739 230.614C209.055 231.35 210.214 233.182 210.247 235.48C210.28 237.801 209.074 239.6 206.801 240.388C205.813 240.73 204.693 240.905 203.658 240.83C201.29 240.654 200.245 241.513 200.402 243.972C200.473 245.102 200.236 246.317 199.847 247.39C199.078 249.516 197.369 250.532 195.418 250.755L195.422 250.75Z" fill="#FBE330"/>
<path d="M267.456 230.904C262.377 230.904 259.604 228.939 259.695 225.402C259.785 221.951 262.429 220.138 267.384 220.133C272.554 220.129 275.269 221.961 275.297 225.483C275.326 229.01 272.582 230.909 267.451 230.904H267.456Z" fill="#FBE330"/>
<path d="M267.332 250.765C262.362 250.812 259.742 248.985 259.737 245.524C259.728 241.936 262.415 240.032 267.532 240.065C268.695 240.075 269.891 240.094 271.016 240.36C273.745 241.005 275.502 243.374 275.274 245.871C275.036 248.486 273.066 250.442 270.256 250.746C269.293 250.85 268.305 250.765 267.332 250.765Z" fill="#FBE330"/>
</svg>
